<svg width="221" height="64" viewBox="0 0 221 64" fill="none" xmlns="http://www.w3.org/2000/svg">
<g clip-path="url(#clip0_261_381)">
<line x1="10" y1="8" x2="10" y2="56.0002" stroke="#B91C1C" stroke-width="4.00002"/>
<line x1="54.0003" y1="16" x2="54.0003" y2="32.0001" stroke="#B91C1C" stroke-width="4.00002"/>
<line x1="54.0003" y1="48" x2="54.0003" y2="56" stroke="#B91C1C" stroke-width="4.00002"/>
<line x1="12" y1="5.99999" x2="44.0001" y2="5.99999" stroke="#B91C1C" stroke-width="4.00002"/>
<line x1="12" y1="58" x2="52.0002" y2="58" stroke="#B91C1C" stroke-width="4.00002"/>
<line x1="46.0003" y1="8" x2="46.0003" y2="12" stroke="#B91C1C" stroke-width="4.00002"/>
<line x1="50.0003" y1="12" x2="50.0003" y2="16" stroke="#B91C1C" stroke-width="4.00002"/>
<line x1="38.0003" y1="8" x2="38.0003" y2="24.0001" stroke="#B91C1C" stroke-width="4.00002"/>
<line x1="40" y1="22" x2="52.0001" y2="22" stroke="#B91C1C" stroke-width="4.00002"/>
<path d="M24 44V42H26V44H24ZM22 42V38H24V42H22ZM26 42V38H28V42H26ZM20 38V29.9999H22V38H20ZM28 38V29.9999H30V38H28ZM32.0001 44V34H34.0001V42H36.0001V44H32.0001ZM32.0001 31.9999V29.9999H34.0001V31.9999H32.0001ZM38.0001 44V42H46.0001V44H38.0001ZM46.0001 42V40H48.0001V42H46.0001ZM40.0001 40V38H46.0001V40H40.0001ZM38.0001 38V36H40.0001V38H38.0001ZM40.0001 36V34H48.0001V36H40.0001ZM50.0001 42V34H52.0001V42H50.0001ZM52.0001 44V42H58.0002V34H60.0002V44H52.0001ZM62.0002 42V40H64.0002V42H62.0002ZM64.0002 44V42H70.0002V40H64.0002V38H70.0002V36H72.0002V44H64.0002ZM64.0002 36V34H70.0002V36H64.0002ZM76.0003 44V42H78.0003V44H76.0003ZM74.0002 42V29.9999H76.0003V42H74.0002ZM90.0003 44V31.9999H86.0003V29.9999H96.0004V31.9999H92.0003V44H90.0003ZM98.0004 42V40H100V42H98.0004ZM100 44V42H106V40H100V38H106V36H108V44H100ZM100 36V34H106V36H100ZM118 42V36H120V42H118ZM114 36V34H118V36H114ZM110 44V29.9999H112V36H114V38H112V42H118V44H110ZM132.001 36V34H134.001V36H132.001ZM128 44V29.9999H130.001V31.9999H132.001V34H130.001V44H128ZM136.001 44V34H134.001V31.9999H136.001V29.9999H138.001V44H136.001ZM140.001 42V40H142.001V42H140.001ZM142.001 44V42H148.001V40H142.001V38H148.001V36H150.001V44H142.001ZM142.001 36V34H148.001V36H142.001ZM160.001 44V36H162.001V44H160.001ZM152.001 44V34H160.001V36H154.001V44H152.001ZM164.001 42V40H166.001V42H164.001ZM166.001 44V42H172.001V40H166.001V38H172.001V36H174.001V44H166.001ZM166.001 36V34H172.001V36H166.001ZM176.001 46V44H184.001V46H176.001ZM176.001 40V36H178.001V40H176.001ZM184.001 44V42H178.001V40H184.001V36H178.001V34H186.001V44H184.001ZM190.001 44V42H198.001V44H190.001ZM188.001 42V36H190.001V38H196.001V36H198.001V40H190.001V42H188.001ZM190.001 36V34H196.001V36H190.001ZM208.001 38V36H210.001V38H208.001ZM200.001 44V34H202.001V36H204.001V38H202.001V44H200.001ZM204.001 36V34H208.001V36H204.001Z" fill="#B91C1C"/>
</g>
<defs>
<clipPath id="clip0_261_381">
<rect width="221" height="64" fill="white"/>
</clipPath>
</defs>
</svg>
